# xmcd CD database file
#
# Track frame offsets:
#	150
#	51022
#	72567
#	105163
#	132410
#	156303
#	182701
#	235038
#
# Disc length: 3478 seconds
#
# Revision: 0
# Processed by: cddbd v1.5.1PL0 Copyright (c) Steve Scherf et al.
# Submitted via: CDex 1.51
#
DISCID=670d9408
DTITLE=Pierre Dørge And The New Jungle Orchestra - Live at Birdland
DYEAR=1900
DGENRE=Jazz
TTITLE0=St. Louis Blues
TTITLE1=Det Koster ej for Megen Strid
TTITLE2=Lost in the Desert I se a.../Caravan
TTITLE3=Black Beauty
TTITLE4=Stranger Than Jim
TTITLE5=Lions of Shanghai
TTITLE6=Dragon Dance
TTITLE7=Jubee Jubee
EXTD=
EXTT0=
EXTT1=
EXTT2=
EXTT3=
EXTT4=
EXTT5=
EXTT6=
EXTT7=
PLAYORDER=
